# xmcd
#
# Track frame offsets: 
#        150
#        13370
#        42370
#
# Disc length: 755 seconds
#
# Revision: 0
# Processed by: cddbd v1.5.1PL0 Copyright (c) Steve Scherf et al.
# Submitted via: ExactAudioCopy v0.95a5
#
DISCID=2102f103
DTITLE=Reba McEntire - Whirlpool Presents: Reba Live
DYEAR=2004
DGENRE=Country
TTITLE0=I'm A Survivor (Live)
TTITLE1=Take It Back - Why Haven't I Heard From You (Live Medley)
TTITLE2=Data Track
EXTD=
EXTT0=
EXTT1=
EXTT2=
PLAYORDER=
